<svg xmlns="http://www.w3.org/2000/svg" xmlns:xlink="http://www.w3.org/1999/xlink" width="676" height="438" viewBox="0 0 676 438"><defs><clipPath id="a"><rect width="676" height="438" rx="21" transform="translate(655 181)" fill="#fff"/></clipPath><clipPath id="b"><rect width="40" height="80" transform="translate(3159.693 5467.446)" fill="#fff" stroke="#707070" stroke-width="1"/></clipPath></defs><g transform="translate(-655 -181)" clip-path="url(#a)"><g transform="translate(-2338.693 -5285.446)"><g transform="translate(2993.693 5467.072)"><rect width="437.459" height="437.459" transform="translate(0)" fill="#fff"/></g><g transform="translate(3102.118 5627.195)"><path d="M0,0H13.254a0,0,0,0,1,0,0V26.4a0,0,0,0,1,0,0h0A13.254,13.254,0,0,1,0,13.146V0A0,0,0,0,1,0,0Z" transform="translate(26.841 20.616) rotate(141.343)" fill="#3d6833"/></g><g transform="translate(2993.734 5467.072)"><path d="M0,0H437.418a0,0,0,0,1,0,0V41.286A119.271,119.271,0,0,1,318.147,160.557H0a0,0,0,0,1,0,0V0A0,0,0,0,1,0,0Z" transform="translate(0)" fill="#d8d8d8"/></g><g transform="translate(3052.81 5776.654)"><path d="M0,0H80.437a0,0,0,0,1,0,0V76.438a0,0,0,0,1,0,0H30.7A30.7,30.7,0,0,1,0,45.734V0A0,0,0,0,1,0,0Z" fill="#d8d8d8"/></g><g transform="translate(3220.37 5468.014)"><path d="M3621.326,5758.4h-5.833v-46.944a15.73,15.73,0,0,1,15.711-15.712H3761.9a9.89,9.89,0,0,0,9.878-9.879v-14.69h5.833v14.69a15.729,15.729,0,0,1-15.711,15.711H3631.2a9.891,9.891,0,0,0-9.878,9.88Z" transform="translate(-3615.493 -5671.171)" fill="#fff"/></g><g transform="translate(3189.363 5555.359)"><path d="M55.375,0h64.481a28.237,28.237,0,0,1,28.237,28.237v0a43.957,43.957,0,0,1-43.957,43.957H0a0,0,0,0,1,0,0V55.375A55.375,55.375,0,0,1,55.375,0Z" transform="translate(0 0)" fill="#fff"/></g><g transform="translate(3047.676 5785.159)"><g transform="translate(0 49.22)"><path d="M3224.329,6684.171c-3.4,0-5.135-1.717-6.667-3.232-1.41-1.4-2.629-2.6-5.128-2.6s-3.718,1.2-5.128,2.6c-1.532,1.516-3.268,3.232-6.666,3.232s-5.134-1.717-6.666-3.232c-1.411-1.4-2.629-2.6-5.128-2.6s-3.717,1.2-5.127,2.6c-1.532,1.516-3.268,3.232-6.667,3.232s-5.134-1.717-6.666-3.232c-1.411-1.4-2.629-2.6-5.127-2.6s-3.717,1.2-5.127,2.6c-1.531,1.516-3.268,3.232-6.665,3.232s-5.133-1.717-6.665-3.232c-1.41-1.4-2.628-2.6-5.127-2.6v-2.187c3.4,0,5.134,1.717,6.666,3.232,1.41,1.4,2.628,2.6,5.126,2.6s3.716-1.2,5.126-2.6c1.532-1.516,3.268-3.232,6.666-3.232s5.134,1.717,6.665,3.232c1.411,1.4,2.629,2.6,5.128,2.6s3.718-1.2,5.128-2.6c1.532-1.516,3.268-3.232,6.666-3.232s5.135,1.717,6.666,3.232c1.411,1.4,2.63,2.6,5.128,2.6s3.717-1.2,5.127-2.6c1.532-1.516,3.268-3.232,6.667-3.232s5.135,1.717,6.667,3.232c1.411,1.4,2.629,2.6,5.129,2.6s3.718-1.2,5.129-2.6c1.531-1.516,3.268-3.232,6.667-3.232v2.188c-2.5,0-3.718,1.2-5.129,2.6C3229.463,6682.454,3227.727,6684.171,3224.329,6684.171Z" transform="translate(-3141.775 -6676.151)" fill="#fff"/></g><g transform="translate(0 36.915)"><path d="M3224.329,6650.417c-3.4,0-5.135-1.717-6.667-3.231-1.41-1.4-2.629-2.6-5.128-2.6s-3.718,1.206-5.128,2.6c-1.532,1.515-3.268,3.231-6.666,3.231s-5.134-1.717-6.666-3.231c-1.411-1.4-2.629-2.6-5.128-2.6s-3.717,1.206-5.127,2.6c-1.532,1.515-3.268,3.231-6.667,3.231s-5.134-1.717-6.666-3.231c-1.411-1.4-2.629-2.6-5.127-2.6s-3.717,1.206-5.127,2.6c-1.531,1.515-3.268,3.231-6.665,3.231s-5.133-1.717-6.665-3.231c-1.41-1.4-2.628-2.6-5.127-2.6V6642.4c3.4,0,5.134,1.717,6.666,3.233,1.41,1.395,2.628,2.6,5.126,2.6s3.716-1.206,5.126-2.6c1.532-1.516,3.268-3.233,6.666-3.233s5.134,1.717,6.665,3.233c1.411,1.395,2.629,2.6,5.128,2.6s3.718-1.206,5.128-2.6c1.532-1.516,3.268-3.233,6.666-3.233s5.135,1.717,6.666,3.233c1.411,1.395,2.63,2.6,5.128,2.6s3.717-1.206,5.127-2.6c1.532-1.516,3.268-3.233,6.667-3.233s5.135,1.717,6.667,3.233c1.411,1.395,2.629,2.6,5.129,2.6s3.718-1.206,5.129-2.6c1.531-1.516,3.268-3.233,6.667-3.233v2.188c-2.5,0-3.718,1.206-5.129,2.6C3229.463,6648.7,3227.727,6650.417,3224.329,6650.417Z" transform="translate(-3141.775 -6642.397)" fill="#fff"/></g><g transform="translate(0 24.61)"><path d="M3224.329,6616.664c-3.4,0-5.135-1.717-6.667-3.233-1.41-1.4-2.629-2.6-5.128-2.6s-3.718,1.2-5.128,2.6c-1.532,1.516-3.268,3.233-6.666,3.233s-5.134-1.717-6.666-3.233c-1.411-1.4-2.629-2.6-5.128-2.6s-3.717,1.2-5.127,2.6c-1.532,1.516-3.268,3.233-6.667,3.233s-5.134-1.717-6.666-3.233c-1.411-1.4-2.629-2.6-5.127-2.6s-3.717,1.2-5.127,2.6c-1.531,1.516-3.268,3.233-6.665,3.233s-5.133-1.717-6.665-3.233c-1.41-1.4-2.628-2.6-5.127-2.6v-2.187c3.4,0,5.134,1.717,6.666,3.232,1.41,1.4,2.628,2.6,5.126,2.6s3.716-1.2,5.126-2.6c1.532-1.515,3.268-3.232,6.666-3.232s5.134,1.717,6.665,3.232c1.411,1.4,2.629,2.6,5.128,2.6s3.718-1.2,5.128-2.6c1.532-1.515,3.268-3.232,6.666-3.232s5.135,1.717,6.666,3.232c1.411,1.4,2.63,2.6,5.128,2.6s3.717-1.2,5.127-2.6c1.532-1.515,3.268-3.232,6.667-3.232s5.135,1.717,6.667,3.232c1.411,1.4,2.629,2.6,5.129,2.6s3.718-1.2,5.129-2.6c1.531-1.515,3.268-3.232,6.667-3.232v2.188c-2.5,0-3.718,1.2-5.129,2.6C3229.463,6614.947,3227.727,6616.664,3224.329,6616.664Z" transform="translate(-3141.775 -6608.644)" fill="#fff"/></g><g transform="translate(0 12.305)"><path d="M3224.329,6582.909c-3.4,0-5.135-1.716-6.667-3.231-1.41-1.4-2.629-2.6-5.128-2.6s-3.718,1.206-5.128,2.6c-1.532,1.515-3.268,3.231-6.666,3.231s-5.134-1.716-6.666-3.231c-1.411-1.4-2.629-2.6-5.128-2.6s-3.717,1.206-5.127,2.6c-1.532,1.515-3.268,3.231-6.667,3.231s-5.134-1.716-6.666-3.231c-1.411-1.4-2.629-2.6-5.127-2.6s-3.717,1.206-5.127,2.6c-1.531,1.515-3.268,3.231-6.665,3.231s-5.133-1.716-6.665-3.231c-1.41-1.4-2.628-2.6-5.127-2.6v-2.187c3.4,0,5.134,1.718,6.666,3.233,1.41,1.4,2.628,2.6,5.126,2.6s3.716-1.206,5.126-2.6c1.532-1.515,3.268-3.233,6.666-3.233s5.134,1.718,6.665,3.233c1.411,1.4,2.629,2.6,5.128,2.6s3.718-1.206,5.128-2.6c1.532-1.515,3.268-3.233,6.666-3.233s5.135,1.718,6.666,3.233c1.411,1.4,2.63,2.6,5.128,2.6s3.717-1.206,5.127-2.6c1.532-1.515,3.268-3.233,6.667-3.233s5.135,1.718,6.667,3.233c1.411,1.4,2.629,2.6,5.129,2.6s3.718-1.206,5.129-2.6c1.531-1.515,3.268-3.233,6.667-3.233v2.188c-2.5,0-3.718,1.206-5.129,2.6C3229.463,6581.192,3227.727,6582.909,3224.329,6582.909Z" transform="translate(-3141.775 -6574.889)" fill="#fff"/></g><path d="M3224.329,6549.156c-3.4,0-5.135-1.719-6.667-3.233-1.41-1.4-2.629-2.6-5.128-2.6s-3.718,1.206-5.128,2.6c-1.532,1.514-3.268,3.233-6.666,3.233s-5.134-1.719-6.666-3.233c-1.411-1.4-2.629-2.6-5.128-2.6s-3.717,1.206-5.127,2.6c-1.532,1.514-3.268,3.233-6.667,3.233s-5.134-1.719-6.666-3.233c-1.411-1.4-2.629-2.6-5.127-2.6s-3.717,1.206-5.127,2.6c-1.531,1.514-3.268,3.233-6.665,3.233s-5.133-1.719-6.665-3.233c-1.41-1.4-2.628-2.6-5.127-2.6v-2.187c3.4,0,5.134,1.718,6.666,3.232,1.41,1.4,2.628,2.6,5.126,2.6s3.716-1.2,5.126-2.6c1.532-1.514,3.268-3.232,6.666-3.232s5.134,1.718,6.665,3.232c1.411,1.4,2.629,2.6,5.128,2.6s3.718-1.2,5.128-2.6c1.532-1.514,3.268-3.232,6.666-3.232s5.135,1.718,6.666,3.232c1.411,1.4,2.63,2.6,5.128,2.6s3.717-1.2,5.127-2.6c1.532-1.514,3.268-3.232,6.667-3.232s5.135,1.718,6.667,3.232c1.411,1.4,2.629,2.6,5.129,2.6s3.718-1.2,5.129-2.6c1.531-1.514,3.268-3.232,6.667-3.232v2.187c-2.5,0-3.718,1.206-5.129,2.6C3229.463,6547.438,3227.727,6549.156,3224.329,6549.156Z" transform="translate(-3141.775 -6541.135)" fill="#fff"/></g><g transform="translate(3216.854 5555.239)"><rect width="13.006" height="173.338" fill="#a8a8a8"/></g><g transform="translate(3041.624 5730.843)"><path d="M16.372,0h6a0,0,0,0,1,0,0V0A16.372,16.372,0,0,1,6,16.372H0a0,0,0,0,1,0,0v0A16.372,16.372,0,0,1,16.372,0Z" transform="translate(0)" fill="#629e51"/></g><g transform="translate(3041.624 5820.583)"><path d="M19.677,0h7.211a0,0,0,0,1,0,0V0A19.677,19.677,0,0,1,7.211,19.677H0a0,0,0,0,1,0,0v0A19.677,19.677,0,0,1,19.677,0Z" transform="translate(0 0)" fill="#629e51"/></g><g transform="translate(3041.624 5613.783)"><path d="M16.372,0h6a0,0,0,0,1,0,0V0A16.372,16.372,0,0,1,6,16.372H0a0,0,0,0,1,0,0v0A16.372,16.372,0,0,1,16.372,0Z" transform="translate(0)" fill="#629e51"/></g><g transform="translate(3019.252 5663.435)"><path d="M0,0H6A16.372,16.372,0,0,1,22.372,16.372v0a0,0,0,0,1,0,0h-6A16.372,16.372,0,0,1,0,0V0A0,0,0,0,1,0,0Z" transform="translate(0 0)" fill="#629e51"/></g><g transform="translate(3011.564 5774.108)"><path d="M0,0H8.062a22,22,0,0,1,22,22v0a0,0,0,0,1,0,0H22A22,22,0,0,1,0,0V0A0,0,0,0,1,0,0Z" fill="#629e51"/></g><g transform="translate(3393.59 5785.053)"><circle cx="4.704" cy="4.704" r="4.704" transform="translate(1.458 1.458)" fill="#fff"/><path d="M4096.82,6553.169a6.162,6.162,0,1,1,6.162-6.162A6.169,6.169,0,0,1,4096.82,6553.169Zm0-9.407a3.245,3.245,0,1,0,3.245,3.245A3.249,3.249,0,0,0,4096.82,6543.763Z" transform="translate(-4090.657 -6540.845)"/></g><g transform="translate(3368.252 5687.078)"><path d="M4021.152,6272.086" transform="translate(-4021.152 -6272.086)" fill="#fff"/></g><g transform="translate(3038.708 5547.814)"><path d="M3224.866,6210.092h-85.149a22.57,22.57,0,0,1-22.544-22.544V5890.071h5.833v297.476a16.73,16.73,0,0,0,16.711,16.711h79.316v-96.346a26.176,26.176,0,0,1-24.478-26.089v-13.645H3254.8a10.127,10.127,0,0,0,10.115-10.116V5926.055a31.39,31.39,0,0,1,31.354-31.355h107.506a15.084,15.084,0,0,1,15.066,15.066v38.145a24.514,24.514,0,0,1-24.486,24.485h-54.979v147.694a10.479,10.479,0,0,0,10.466,10.466h123.674v5.832H3349.84a16.316,16.316,0,0,1-16.3-16.3V5966.564h60.811a18.675,18.675,0,0,0,18.654-18.653v-38.145a9.244,9.244,0,0,0-9.234-9.233H3296.266a25.551,25.551,0,0,0-25.521,25.522v132.008a15.967,15.967,0,0,1-15.948,15.949h-54.409v7.812a20.33,20.33,0,0,0,20.308,20.308h4.17Z" transform="translate(-3117.173 -5890.071)"/></g><g transform="translate(3199.667 5813.212)"><g transform="translate(9.719 0)"><path d="M18.142,0h0A18.142,18.142,0,0,1,36.284,18.142V35.759a0,0,0,0,1,0,0H0a0,0,0,0,1,0,0V18.142A18.142,18.142,0,0,1,18.142,0Z"/></g><g transform="translate(9.719 35.759)"><rect width="18.043" height="31.712" fill="#3d6833"/></g><g transform="translate(27.7 35.759)"><rect width="18.043" height="31.712" fill="#3d6833"/></g><g transform="translate(0 67.471)"><path d="M3558.7,6813.281h27.7v-10.114h-17.982Z" transform="translate(-3558.702 -6803.167)"/></g><g transform="translate(27.7 67.471)"><path d="M3662.388,6813.281h-27.7v-10.114h17.981Z" transform="translate(-3634.687 -6803.167)"/></g></g><g transform="translate(3109.279 5641.346)"><g transform="translate(8.769 1.121)"><path d="M16.644,0h0A16.644,16.644,0,0,1,33.288,16.644V32.807a0,0,0,0,1,0,0H0a0,0,0,0,1,0,0V16.644A16.644,16.644,0,0,1,16.644,0Z" fill="#ed8ee2"/></g><g transform="translate(8.769 33.928)"><rect width="16.644" height="29.094" fill="#ed8ee2"/></g><g transform="translate(0 63.021)"><path d="M3310.76,6328.794h25.413v-9.278h-16.5Z" transform="translate(-3310.76 -6319.516)" fill="#f7931e"/></g><g transform="translate(25.413 63.021)"><path d="M3405.883,6328.794H3380.47v-9.278h16.5Z" transform="translate(-3380.47 -6319.516)" fill="#f7931e"/></g><g transform="translate(25.413 33.928)"><rect width="16.644" height="29.094" fill="#ed8ee2"/></g><g transform="translate(28.803 21.15)"><path d="M0,0H13.254a0,0,0,0,1,0,0V26.4a0,0,0,0,1,0,0h0A13.254,13.254,0,0,1,0,13.146V0A0,0,0,0,1,0,0Z" fill="#3d6833"/></g><g transform="translate(24.537 0)"><rect width="1.458" height="63.021" fill="#fff"/></g></g><g transform="translate(3227.527 5813.418)"><rect width="101.813" height="8.749"/></g><g transform="translate(3166.561 5743.624)"><path d="M3528.855,6505.741h-34.112a26.884,26.884,0,0,1-26.854-26.853V6427.2h8.749v51.69a18.126,18.126,0,0,0,18.105,18.1h34.112Z" transform="translate(-3467.888 -6427.198)"/></g><g transform="translate(3326.654 5811.847)"><path d="M3.427,0H26.089a0,0,0,0,1,0,0V0A10.261,10.261,0,0,1,15.828,10.261H0a0,0,0,0,1,0,0V3.427A3.427,3.427,0,0,1,3.427,0Z" transform="translate(0 0)" fill="#f7931e"/></g><g transform="translate(3134.728 5740.011)"><path d="M0,0H36.791a3.758,3.758,0,0,1,3.758,3.758v8.1a0,0,0,0,1,0,0H11.861A11.861,11.861,0,0,1,0,0V0A0,0,0,0,1,0,0Z" transform="translate(0 0)" fill="#629e51"/></g><g transform="translate(3209.828 5659.631)"><rect width="27.379" height="11.964" transform="translate(0 0)" fill="#d8d8d8"/></g><g transform="translate(3209.828 5590.683)"><rect width="27.379" height="11.964" transform="translate(27.379 11.964) rotate(-180)" fill="#d8d8d8"/></g><g transform="translate(3205.243 5727.694)"><path d="M6.3,0h23.49a6.3,6.3,0,0,1,6.3,6.3v0a0,0,0,0,1,0,0H0a0,0,0,0,1,0,0v0A6.3,6.3,0,0,1,6.3,0Z" transform="translate(0 0)" fill="#d8d8d8"/></g><g transform="translate(3364.243 5536.181)"><g transform="translate(0 36.275)"><g transform="translate(0 18.138)"><path d="M4030.114,6027.378h-19.96v-19.96h19.96Zm-18.137-1.823h16.314v-16.315h-16.314Z" transform="translate(-4010.154 -6007.418)" fill="#fff"/></g><g transform="translate(0.267 18.405)"><rect width="1.823" height="25.65" transform="translate(0 1.289) rotate(-45)" fill="#fff"/></g><path d="M4030.114,5977.624h-19.96v-19.959h19.96Zm-18.137-1.822h16.314v-16.315h-16.314Z" transform="translate(-4010.154 -5957.665)" fill="#fff"/><g transform="translate(0.267 0.267)"><rect width="25.65" height="1.823" transform="translate(0 18.138) rotate(-45)" fill="#fff"/></g></g><g transform="translate(0 0)"><path d="M4030.114,5878.118h-19.96v-19.96h19.96Zm-18.137-1.823h16.314V5859.98h-16.314Z" transform="translate(-4010.154 -5858.157)" fill="#fff"/><g transform="translate(0.267 0.267)"><rect width="25.65" height="1.823" transform="translate(0 18.137) rotate(-45)" fill="#fff"/></g><g transform="translate(0 18.137)"><path d="M4030.114,5927.871h-19.96V5907.91h19.96Zm-18.137-1.822h16.314v-16.315h-16.314Z" transform="translate(-4010.154 -5907.91)" fill="#fff"/></g><g transform="translate(0.267 18.404)"><rect width="1.823" height="25.65" transform="translate(0 1.289) rotate(-44.999)" fill="#fff"/></g></g></g><g transform="translate(3277.611 5839.417)"><g transform="translate(0)"><path d="M3806.434,6723.894h-33.921v-15.248a18.7,18.7,0,0,1,18.674-18.674h15.248Zm-29.547-4.375h25.172v-25.173h-10.873a14.316,14.316,0,0,0-14.3,14.3Z" transform="translate(-3772.512 -6689.972)" fill="#d8d8d8"/><g transform="translate(0.641 0.641)"><rect width="41.786" height="4.374" transform="translate(0 29.547) rotate(-45)" fill="#d8d8d8"/></g><g transform="translate(29.547)"><path d="M3887.485,6723.894h-33.921v-33.922h33.921Zm-29.547-4.375h25.173v-25.173h-25.173Z" transform="translate(-3853.563 -6689.972)" fill="#d8d8d8"/></g><g transform="translate(30.188 0.641)"><rect width="4.374" height="41.786" transform="translate(0 3.093) rotate(-45)" fill="#d8d8d8"/></g></g><g transform="translate(59.094)"><g transform="translate(29.547)"><path d="M4049.588,6723.894h-33.921v-33.922h15.247a18.7,18.7,0,0,1,18.674,18.674Zm-29.547-4.375h25.173v-10.873a14.316,14.316,0,0,0-14.3-14.3h-10.873Z" transform="translate(-4015.667 -6689.972)" fill="#d8d8d8"/></g><g transform="translate(30.188 0.641)"><rect width="4.374" height="41.786" transform="translate(0 3.093) rotate(-45)" fill="#d8d8d8"/></g><path d="M3968.537,6723.894h-33.922v-33.922h33.922Zm-29.547-4.375h25.172v-25.173H3938.99Z" transform="translate(-3934.615 -6689.972)" fill="#d8d8d8"/><g transform="translate(0.641 0.641)"><rect width="41.786" height="4.374" transform="translate(0 29.547) rotate(-45)" fill="#d8d8d8"/></g></g></g><g transform="translate(3136.797 5857.799)"><circle cx="5.661" cy="5.661" r="5.661" transform="translate(1.458 1.458)" fill="#fff"/><path d="M3393.361,6754.633a7.119,7.119,0,1,1,7.119-7.119A7.127,7.127,0,0,1,3393.361,6754.633Zm0-11.321a4.2,4.2,0,1,0,4.2,4.2A4.208,4.208,0,0,0,3393.361,6743.312Z" transform="translate(-3386.242 -6740.395)"/></g><g transform="translate(3255.075 5627.629)"><rect width="5.833" height="126.795" transform="translate(0 0)" fill="#f7931e"/></g><g transform="translate(3322.993 5675.272)"><g transform="translate(11.583 0)"><rect width="5.832" height="74.9" transform="translate(0 0.902) rotate(-8.895)" fill="#f7931e"/></g><g transform="translate(0 0)"><rect width="74.9" height="5.833" transform="matrix(0.155, -0.988, 0.988, 0.155, 0, 73.999)" fill="#f7931e"/></g></g><g transform="translate(3292.657 5747.771)"><path d="M0,0H89.6a0,0,0,0,1,0,0V0a15.01,15.01,0,0,1-15.01,15.01H15.01A15.01,15.01,0,0,1,0,0V0A0,0,0,0,1,0,0Z" transform="translate(89.599 15.01) rotate(-180)" fill="#d8d8d8"/></g><g transform="translate(3004.882 5500.658)"><g transform="translate(0)"><g transform="translate(31.751)"><path d="M3111.482,5781.929a50.587,50.587,0,0,0,4.991,21.213,47.578,47.578,0,0,0,0-42.427A50.592,50.592,0,0,0,3111.482,5781.929Z" transform="translate(-3111.482 -5760.715)" fill="#ed8ee2"/></g><g transform="translate(0 42.427)"><path d="M3045.251,5892.025a50.584,50.584,0,0,0,15.875-14.929,47.573,47.573,0,0,0-36.742,21.214A50.6,50.6,0,0,0,3045.251,5892.025Z" transform="translate(-3024.384 -5877.096)" fill="#ed8ee2"/></g><g transform="translate(36.743 42.427)"><path d="M3146.04,5883.38a50.609,50.609,0,0,0-20.867-6.284,47.581,47.581,0,0,0,36.742,21.214A50.592,50.592,0,0,0,3146.04,5883.38Z" transform="translate(-3125.173 -5877.096)" fill="#ed8ee2"/></g></g><g transform="translate(30.581 36.33)"><circle cx="4.704" cy="4.704" r="4.704" transform="translate(1.458 1.458)" fill="#fff"/><path d="M3114.433,5872.7a6.161,6.161,0,1,1,6.162-6.162A6.169,6.169,0,0,1,3114.433,5872.7Zm0-9.407a3.245,3.245,0,1,0,3.246,3.245A3.249,3.249,0,0,0,3114.433,5863.29Z" transform="translate(-3108.27 -5860.374)"/></g></g><g transform="translate(3250.135 5620.51)"><circle cx="5.661" cy="5.661" r="5.661" transform="translate(1.458 1.458)" fill="#fff"/><path d="M3704.263,6103.724a7.119,7.119,0,1,1,7.118-7.119A7.127,7.127,0,0,1,3704.263,6103.724Zm0-11.322a4.2,4.2,0,1,0,4.2,4.2A4.208,4.208,0,0,0,3704.263,6092.4Z" transform="translate(-3697.144 -6089.485)"/></g><g transform="translate(3041.624 5580.738)"><rect width="95.84" height="5.833"/></g><g transform="translate(3100.721 5541.162)"><g transform="translate(0 0)"><g transform="translate(31.752)"><path d="M3374.382,5893.036a50.587,50.587,0,0,0,4.991,21.212,47.575,47.575,0,0,0,0-42.426A50.6,50.6,0,0,0,3374.382,5893.036Z" transform="translate(-3374.382 -5871.821)" fill="#629e51"/></g><g transform="translate(0 42.427)"><path d="M3308.15,6003.132a50.589,50.589,0,0,0,15.875-14.929,47.576,47.576,0,0,0-36.742,21.214A50.593,50.593,0,0,0,3308.15,6003.132Z" transform="translate(-3287.283 -5988.203)" fill="#629e51"/></g><g transform="translate(36.743 42.427)"><path d="M3408.939,5994.487a50.6,50.6,0,0,0-20.867-6.284,47.584,47.584,0,0,0,36.743,21.214A50.6,50.6,0,0,0,3408.939,5994.487Z" transform="translate(-3388.072 -5988.203)" fill="#629e51"/></g></g><g transform="translate(30.581 36.33)"><circle cx="4.704" cy="4.704" r="4.704" transform="translate(1.458 1.458)" fill="#fff"/><path d="M3377.331,5983.8a6.162,6.162,0,1,1,6.162-6.163A6.169,6.169,0,0,1,3377.331,5983.8Zm0-9.407a3.245,3.245,0,1,0,3.246,3.244A3.249,3.249,0,0,0,3377.331,5974.4Z" transform="translate(-3371.169 -5971.479)"/></g></g><g transform="translate(3090.788 5516.109)"><rect width="5.833" height="67.505" transform="matrix(1, -0.017, 0.017, 1, 0, 0.099)"/></g><g transform="translate(3063.626 5480.642)"><g transform="translate(0 0)"><g transform="translate(25.992)"><path d="M3256.827,5723.174a41.417,41.417,0,0,0,4.086,17.366,38.94,38.94,0,0,0,0-34.73A41.414,41.414,0,0,0,3256.827,5723.174Z" transform="translate(-3256.827 -5705.81)" fill="#3d6833"/></g><g transform="translate(0 34.732)"><path d="M3202.609,5813.3a41.408,41.408,0,0,0,13-12.221,38.946,38.946,0,0,0-30.078,17.366A41.429,41.429,0,0,0,3202.609,5813.3Z" transform="translate(-3185.527 -5801.082)" fill="#3d6833"/></g><g transform="translate(30.078 34.732)"><path d="M3285.117,5806.226a41.431,41.431,0,0,0-17.082-5.144,38.95,38.95,0,0,0,30.079,17.366A41.422,41.422,0,0,0,3285.117,5806.226Z" transform="translate(-3268.035 -5801.082)" fill="#3d6833"/></g></g><g transform="translate(23.916 29.355)"><circle cx="4.704" cy="4.704" r="4.704" transform="translate(1.458 1.458)" fill="#fff"/><path d="M3257.294,5798.657a6.162,6.162,0,1,1,6.162-6.162A6.169,6.169,0,0,1,3257.294,5798.657Zm0-9.408a3.246,3.246,0,1,0,3.246,3.246A3.249,3.249,0,0,0,3257.294,5789.249Z" transform="translate(-3251.132 -5786.333)"/></g></g><g transform="translate(3298.027 5646.124)"><g transform="translate(72.659 0)"><path d="M4028.328,6160.244c6.11,0,11.063,13.17,11.063,29.417s-4.953,29.417-11.063,29.417Z" transform="translate(-4028.146 -6160.063)"/><path d="M4028.01,6218.943h-.182v-59.2h.182c6.2,0,11.245,13.278,11.245,29.6S4034.211,6218.943,4028.01,6218.943Zm.183-58.83v58.461c5.916-.262,10.7-13.274,10.7-29.231S4034.109,6160.375,4028.193,6160.114Z" transform="translate(-4027.828 -6159.745)" fill="#3d6833"/></g><g transform="translate(0 25.602)"><path d="M4,0H4A4,4,0,0,1,8,4V72.841a0,0,0,0,1,0,0H0a0,0,0,0,1,0,0V4A4,4,0,0,1,4,0Z" transform="translate(0 7.995) rotate(-90)" fill="#f7931e"/></g><g transform="translate(33.527 23.697)"><circle cx="4.445" cy="4.445" r="4.445" transform="translate(1.458 1.458)" fill="#fff"/><path d="M3926.387,6236.553a5.9,5.9,0,1,1,5.9-5.9A5.91,5.91,0,0,1,3926.387,6236.553Zm0-8.889a2.986,2.986,0,1,0,2.986,2.986A2.989,2.989,0,0,0,3926.387,6227.664Z" transform="translate(-3920.483 -6224.748)"/></g></g><g transform="translate(3303.085 5548.256)"><path d="M0,0H13.223a0,0,0,0,1,0,0V26.337a0,0,0,0,1,0,0h0A13.223,13.223,0,0,1,0,13.115V0A0,0,0,0,1,0,0Z" transform="translate(0 13.223) rotate(-90)" fill="#f7931e"/></g><g transform="translate(3267.337 5542.933)"><g transform="translate(8.748 1.118)"><path d="M0,0H33.209a0,0,0,0,1,0,0V16.124a16.6,16.6,0,0,1-16.6,16.6h0A16.6,16.6,0,0,1,0,16.124V0A0,0,0,0,1,0,0Z" transform="translate(33.209 32.729) rotate(-180)" fill="#3d6833"/></g><g transform="translate(25.353 33.847)"><rect width="16.605" height="29.025" transform="translate(16.605 29.025) rotate(-180)" fill="#3d6833"/></g><g transform="translate(25.353 62.872)"><path d="M3839.23,6058.4h-25.353v-9.257h16.458Z" transform="translate(-3813.877 -6049.145)"/></g><g transform="translate(0 62.872)"><path d="M3744.331,6058.4h25.353v-9.257h-16.458Z" transform="translate(-3744.331 -6049.145)"/></g><g transform="translate(8.748 33.847)"><rect width="16.605" height="29.025" transform="translate(16.605 29.025) rotate(-180)" fill="#3d6833"/></g><g transform="translate(8.748 21.099)"><path d="M13.223,0h0a0,0,0,0,1,0,0V26.337a0,0,0,0,1,0,0H0a0,0,0,0,1,0,0V13.223A13.223,13.223,0,0,1,13.223,0Z" transform="translate(13.223 26.337) rotate(180)" fill="#f7931e"/></g><g transform="translate(24.771 0)"><rect width="1.458" height="62.872" fill="#fff"/></g></g><g transform="translate(3284.58 5523.149)"><g transform="translate(2.17 6.205)"><circle cx="6.087" cy="6.087" r="6.087" fill="#f7931e"/></g><g transform="translate(0 6.205)"><path d="M1.8,0h17.38a0,0,0,0,1,0,0V3.6a0,0,0,0,1,0,0H1.8A1.8,1.8,0,0,1,0,1.8v0A1.8,1.8,0,0,1,1.8,0Z" transform="translate(19.181 3.603) rotate(-180)" fill="#3d6833"/></g><g transform="translate(0.907 0)"><path d="M0,0H13.917a0,0,0,0,1,0,0V1.135A6.959,6.959,0,0,1,6.959,8.094h0A6.959,6.959,0,0,1,0,1.135V0A0,0,0,0,1,0,0Z" transform="translate(13.917 8.094) rotate(-180)" fill="#3d6833"/></g></g><g transform="translate(3123.595 5621.516)"><g transform="translate(4.848 6.219)"><circle cx="6.102" cy="6.102" r="6.102" fill="#3d6833"/></g><g transform="translate(0 6.219)"><path d="M1.806,0H19.227a0,0,0,0,1,0,0V3.612a0,0,0,0,1,0,0H1.806A1.806,1.806,0,0,1,0,1.806v0A1.806,1.806,0,0,1,1.806,0Z" fill="#f7931e"/></g><g transform="translate(4.367)"><path d="M6.975,0h0A6.975,6.975,0,0,1,13.95,6.975V8.113a0,0,0,0,1,0,0H0a0,0,0,0,1,0,0V6.975A6.975,6.975,0,0,1,6.975,0Z" fill="#f7931e"/></g></g><g transform="translate(3219.609 5780.711)"><g transform="translate(0.172 0)"><path d="M0,0H6.676a8.791,8.791,0,0,1,8.791,8.791v0a0,0,0,0,1,0,0H0a0,0,0,0,1,0,0V0A0,0,0,0,1,0,0Z" fill="#f7931e"/></g><g transform="translate(0 6.298)"><path d="M4.85,0h5.939a4.85,4.85,0,0,1,4.85,4.85v6.3a7.82,7.82,0,0,1-7.82,7.82h0A7.82,7.82,0,0,1,0,11.154V4.85A4.85,4.85,0,0,1,4.85,0Z" fill="#d8d8d8"/></g><g transform="translate(0 15.785)"><path d="M0,0H15.64a0,0,0,0,1,0,0V4.312a7.82,7.82,0,0,1-7.82,7.82h0A7.82,7.82,0,0,1,0,4.312V0A0,0,0,0,1,0,0Z" fill="#f7931e"/></g><g transform="translate(3.677 17.452)"><rect width="8.285" height="2.309" fill="#d8d8d8"/></g></g><g clip-path="url(#b)"><g transform="translate(3171.016 5351.467)"><g transform="translate(0)"><circle cx="2.868" cy="2.868" r="2.868" fill="#fff"/><g transform="translate(0 13.664)"><circle cx="2.868" cy="2.868" r="2.868" fill="#fff"/></g><g transform="translate(0 27.327)"><circle cx="2.868" cy="2.868" r="2.868" fill="#fff"/></g><g transform="translate(0 40.991)"><circle cx="2.868" cy="2.868" r="2.868" fill="#fff"/></g><g transform="translate(0 54.655)"><circle cx="2.868" cy="2.868" r="2.868" fill="#fff"/></g><g transform="translate(0 68.318)"><circle cx="2.868" cy="2.868" r="2.868" fill="#fff"/></g><g transform="translate(0 81.982)"><circle cx="2.868" cy="2.868" r="2.868" fill="#fff"/></g><g transform="translate(0 95.646)"><circle cx="2.868" cy="2.868" r="2.868" fill="#fff"/></g><g transform="translate(0 109.31)"><circle cx="2.868" cy="2.868" r="2.868" fill="#fff"/></g><g transform="translate(0 122.973)"><circle cx="2.868" cy="2.868" r="2.868" fill="#fff"/></g><g transform="translate(0 136.637)"><circle cx="2.868" cy="2.868" r="2.868" fill="#fff"/></g><g transform="translate(0 150.301)"><circle cx="2.868" cy="2.868" r="2.868" fill="#fff"/></g><g transform="translate(0 163.964)"><circle cx="2.868" cy="2.868" r="2.868" fill="#fff"/></g><g transform="translate(0 177.628)"><circle cx="2.868" cy="2.868" r="2.868" fill="#fff"/></g><g transform="translate(13.648)"><circle cx="2.868" cy="2.868" r="2.868" fill="#fff"/><g transform="translate(0 13.664)"><circle cx="2.868" cy="2.868" r="2.868" fill="#fff"/></g><g transform="translate(0 27.327)"><circle cx="2.868" cy="2.868" r="2.868" fill="#fff"/></g><g transform="translate(0 40.991)"><circle cx="2.868" cy="2.868" r="2.868" fill="#fff"/></g><g transform="translate(0 54.655)"><circle cx="2.868" cy="2.868" r="2.868" fill="#fff"/></g><g transform="translate(0 68.318)"><circle cx="2.868" cy="2.868" r="2.868" fill="#fff"/></g><g transform="translate(0 81.982)"><circle cx="2.868" cy="2.868" r="2.868" fill="#fff"/></g><g transform="translate(0 95.646)"><circle cx="2.868" cy="2.868" r="2.868" fill="#fff"/></g><g transform="translate(0 109.31)"><circle cx="2.868" cy="2.868" r="2.868" fill="#fff"/></g><g transform="translate(0 122.973)"><circle cx="2.868" cy="2.868" r="2.868" fill="#fff"/></g><g transform="translate(0 136.637)"><circle cx="2.868" cy="2.868" r="2.868" fill="#fff"/></g><g transform="translate(0 150.301)"><circle cx="2.868" cy="2.868" r="2.868" fill="#fff"/></g><g transform="translate(0 163.964)"><circle cx="2.868" cy="2.868" r="2.868" fill="#fff"/></g><g transform="translate(0 177.628)"><circle cx="2.868" cy="2.868" r="2.868" fill="#fff"/></g></g></g></g></g></g></g></svg>